<svg width="471.6" height="203.00574222119846" viewBox="0 0 350.00000000000006 150.66159834058413" class="looka-1j8o68f"><defs id="SvgjsDefs1555"><linearGradient id="SvgjsLinearGradient1560"><stop id="SvgjsStop1561" stop-color="#ee2a7b" offset="0"></stop><stop id="SvgjsStop1562" stop-color="#ff7db8" offset="1"></stop></linearGradient><linearGradient id="SvgjsLinearGradient1563"><stop id="SvgjsStop1564" stop-color="#ee2a7b" offset="0"></stop><stop id="SvgjsStop1565" stop-color="#ff7db8" offset="1"></stop></linearGradient></defs><g id="SvgjsG1556" featurekey="Gem1BN-0" transform="matrix(5.074817697302797,0,0,5.074817697302797,-4.059853915856073,-30.448903763955133)" fill="url(#SvgjsLinearGradient1560)"><path d="M4.6 15.66 l-3.8 -9.66 l2.7 0 l2.1 5.3 l2.08 -5.3 l2.7 0 l-3.8 9.66 l-1.98 0 z M0.84 20 l0 -11.62 l2.52 6.42 l0 5.2 l-2.52 0 z M7.84 20 l0 -5.2 l2.52 -6.42 l0 11.62 l-2.52 0 z M15.878 20 l0 -5.2 l-3.18 -8.8 l2.68 0 l3.02 8.36 l0 5.64 l-2.52 0 z M18.918 13.32 l-1.34 -3.7 l1.3 -3.62 l2.68 0 z M32.153999999999996 14.26 l0 -2.52 l2.24 0 l0 -5.74 l2.52 0 l0 8.26 l-4.76 0 z M28.794 20 l0 -14 l2.52 0 l0 14 l-2.52 0 z M34.394 20 l0 -4.9 l2.52 0 l0 4.9 l-2.52 0 z M44.192 20 l0 -2.52 l0.8 0 l0.38 -0.38 l0 -8.2 l-0.38 -0.38 l-0.8 0 l0 -2.52 l1.84 0 l1.86 1.86 l0 10.28 l-1.86 1.86 l-1.84 0 z M41.492000000000004 20 l-1.86 -1.86 l0 -10.28 l1.86 -1.86 l1.84 0 l0 2.52 l-0.8 0 l-0.38 0.38 l0 8.2 l0.38 0.38 l0.8 0 l0 2.52 l-1.84 0 z M54.410000000000004 15.66 l-3.8 -9.66 l2.7 0 l2.1 5.3 l2.08 -5.3 l2.7 0 l-3.8 9.66 l-1.98 0 z M50.650000000000006 20 l0 -11.62 l2.52 6.42 l0 5.2 l-2.52 0 z M57.650000000000006 20 l0 -5.2 l2.52 -6.42 l0 11.62 l-2.52 0 z M62.908 14.26 l0 -8.26 l2.52 0 l0 8.26 l-2.52 0 z M62.908 20 l0 -4.9 l2.52 0 l0 4.9 l-2.52 0 z M66.268 20 l0 -2.52 l3.5 0 l0 2.52 l-3.5 0 z M66.268 14.26 l0 -2.52 l2.38 0 l0 2.52 l-2.38 0 z M66.268 8.52 l0 -2.52 l3.5 0 l0 2.52 l-3.5 0 z"></path></g><g id="SvgjsG1557" featurekey="Gem1BN-1" transform="matrix(4.972438988304116,0,0,4.972438988304116,-3.9779509535389255,51.16537081226265)" fill="url(#SvgjsLinearGradient1563)"><path d="M4.16 15.1 l0 -2.52 l1.58 0 l0.38 -0.38 l0 -3.3 l-0.38 -0.38 l-1.58 0 l0 -2.52 l2.62 0 l1.86 1.86 l0 5.38 l-1.86 1.86 l-2.62 0 z M0.8 20 l0 -4.06 l2.52 0 l0 4.06 l-2.52 0 z M0.8 15.1 l0 -9.1 l2.52 0 l0 9.1 l-2.52 0 z M11.358 16.64 l0 -10.64 l2.52 0 l0 10.64 l-2.52 0 z M11.358 20 l0 -2.52 l2.52 0 l0 2.52 l-2.52 0 z M14.718 20 l0 -2.52 l3.08 0 l0 2.52 l-3.08 0 z M20.116 20 l1.14 -5.6 l4.28 0 l-0.86 -4.28 l-0.68 3.44 l-2.58 0 l1.52 -7.56 l3.48 0 l2.2 10.92 l-5.3 0 l-0.62 3.08 l-2.58 0 z M26.676000000000002 20 l-0.46 -2.24 l2.58 0 l0.44 2.24 l-2.56 0 z M37.034 20 l-5.48 -14 l2.72 0 l2.92 7.48 l0 -7.48 l2.52 0 l0 14 l-2.68 0 z M31.594 20 l0 -11.6 l2.52 6.42 l0 5.18 l-2.52 0 z M47.912000000000006 20 l-5.48 -14 l2.72 0 l2.92 7.48 l0 -7.48 l2.52 0 l0 14 l-2.68 0 z M42.47200000000001 20 l0 -11.6 l2.52 6.42 l0 5.18 l-2.52 0 z M53.31 14.26 l0 -8.26 l2.52 0 l0 8.26 l-2.52 0 z M53.31 20 l0 -4.9 l2.52 0 l0 4.9 l-2.52 0 z M56.67 20 l0 -2.52 l3.5 0 l0 2.52 l-3.5 0 z M56.67 14.26 l0 -2.52 l2.38 0 l0 2.52 l-2.38 0 z M56.67 8.52 l0 -2.52 l3.5 0 l0 2.52 l-3.5 0 z M68.58800000000001 20 l-1.36 -5.18 l-0.98 0 l0 -2.52 l1.58 0 l0.38 -0.38 l0 -3.02 l-0.38 -0.38 l-1.58 0 l0 -2.52 l2.62 0 l1.86 1.86 l0 5.1 l-1.08 1.1 l1.54 5.94 l-2.6 0 z M62.888000000000005 20 l0 -4.34 l2.52 0 l0 4.34 l-2.52 0 z M62.888000000000005 14.82 l0 -8.82 l2.52 0 l0 8.82 l-2.52 0 z"></path></g></svg>